<svg fill="none" height="512" viewBox="0 0 24 24" width="512" xmlns="http://www.w3.org/2000/svg"><g clip-rule="evenodd" fill-rule="evenodd"><path d="m12 .25c-6.48935 0-11.75 5.26065-11.75 11.75 0 6.4893 5.26065 11.75 11.75 11.75 6.4893 0 11.75-5.2607 11.75-11.75 0-6.48935-5.2607-11.75-11.75-11.75z" fill="#2196f3"/><path d="m7.00359 22.6379c-3.99091-1.8778-6.75359-5.9352-6.75359-10.6379 0-4.20656 2.21052-7.89684 5.53333-9.97258l.48429.38622.01394.01112.0134.01176 6.12074 5.37636c.9157.80426.7494 2.27482-.3227 2.85432l-2.91101 1.5735c-.36742.1986-.79375.2592-1.20198.171l-1.66028-.359c-.22173-.048-.38755.2005-.25824.3868l.84626 1.2199c.42736.616.41483 1.4358-.03115 2.0385l-1.09935 1.4856c-.04353.0588-.0591.1337-.04261.205l.79366 3.4321zm16.16551-14.29704-.0179.03128-.0188.03295-.0221.03087-1.6135 2.25884c-.7325 1.0256-2.2762.9639-2.9246-.1168l-.424-.70659c-.0452-.0753-.1266-.12137-.2144-.12137h-1.3158c-.6628 0-1.2688-.37451-1.5652-.96738l-1.0384-2.07673c-.2075-.41513-.2417-.89571-.0949-1.33602l1.369-4.10705.0044-.01317.0049-.013.1744-.465206c3.6344 1.122586 6.5155 3.961186 7.6969 7.569376z" fill="#6ed673"/><path d="m16.8962 12.7281c0-.8053-.7464-1.559-1.6658-1.299-.4936.1395-.9622.3382-1.3975.5878-.7947.4555-.7944 1.4741-.2433 2.0252.0131.0131.0131.0344 0 .0476-.0132.0131-.0345.0131-.0476 0-.5511-.5511-1.5697-.5514-2.0252.2433-.2496.4353-.4483.9039-.5879 1.3975-.2599.9194.4937 1.6659 1.2991 1.6659.0186 0 .0336.015.0336.0336s-.015.0337-.0336.0337c-.8053 0-1.559.7464-1.2991 1.6658.1557.5506.385 1.0701.6764 1.5471.4683.7666 1.4645.7561 2.007.2135.0268-.0268.0703-.0268.0971 0 .0273.0274.0266.0719-.0015.0985-.5447.5125-.5388 1.4911.2233 1.9098.4073.2237.8426.4035 1.2992.5326.9195.2599 1.6658-.4938 1.6658-1.2991 0-.0186.0151-.0336.0337-.0336s.0336.015.0336.0336c0 .8054.7465 1.559 1.6659 1.2991.4936-.1396.9622-.3383 1.3975-.5878.7947-.4556.7944-1.4742.2433-2.0252-.0131-.0132-.0131-.0345 0-.0476.0132-.0132.0345-.0132.0476 0 .5511.551 1.5697.5513 2.0252-.2433.2496-.4354.4483-.904.5878-1.3976.26-.9194-.4936-1.6658-1.299-1.6658-.0186 0-.0337-.0151-.0337-.0337s.0151-.0336.0337-.0336c.8054 0 1.559-.7465 1.299-1.6659-.1395-.4936-.3382-.9622-.5878-1.3975-.4555-.7947-1.4741-.7944-2.0252-.2433-.0131.0131-.0344.0131-.0476 0-.0131-.0132-.0131-.0345 0-.0476.5511-.5511.5514-1.5697-.2433-2.0252-.4353-.2496-.9039-.4483-1.3975-.5878-.9194-.26-1.6659.4937-1.6659 1.299 0 .0186-.015.0337-.0336.0337s-.0337-.0151-.0337-.0337z" fill="#f44336"/><path d="m17.7346 19.3673c.0603-.1491.2301-.221.3792-.1607.384.1553.8212-.03.9765-.414.1554-.384-.03-.8212-.414-.9765-.917-.371-1.9612.0716-2.3322.9887-.1554.3839.03.8212.4139.9765.384.1554.8212-.03.9766-.414z" fill="#aa2b21"/><path d="m12 1.75c-1.8172 0-3.52399.4729-5.00396 1.30234l5.41966 4.76054c.9157.80426.7494 2.27482-.3227 2.85432l-2.91101 1.5735c-.36742.1986-.79375.2592-1.20198.171l-1.66028-.359c-.22173-.048-.38755.2005-.25824.3868l.84626 1.2199c.42736.616.41483 1.4358-.03115 2.0385l-1.09935 1.4856c-.04353.0588-.0591.1337-.04261.205l.7526 3.2545c1.09237.6983 2.32591 1.1951 3.64826 1.438.4074.0748.677.4657.6022.8731-.0749.4074-.4658.677-.8732.6022-5.4698-1.0047-9.6145-5.7957-9.6145-11.5563 0-6.48935 5.26065-11.75 11.75-11.75 6.1297 0 11.1624 4.69313 11.7021 10.6827.0372.4125-.2671.7771-.6796.8143-.4126.0371-.7771-.2671-.8143-.6797-.0347-.3849-.0907-.7636-.1667-1.13502l-.5447.76252c-.7325 1.0255-2.2762.9639-2.9246-.1168l-.424-.70664c-.0452-.0753-.1266-.12137-.2144-.12137h-1.3158c-.6628 0-1.2688-.37451-1.5652-.96738l-1.0384-2.07673c-.2075-.41513-.2417-.89571-.0949-1.33602l1.06-3.18006c-.9429-.28601-1.9433-.4398-2.9795-.4398zm4.3804.98052-1.0379 3.11368c-.021.0629-.0161.13156.0136.19086l1.0383 2.07673c.0424.0847.1289.1382.2236.1382h1.3158c.6147 0 1.1844.32252 1.5006.84963l.424.70664c.0926.15438.3132.16319.4178.01668l1.215-1.70092c-.9703-2.3721-2.8042-4.29957-5.1108-5.3915zm-14.6304 9.26948c0-3.2866 1.54684-6.21191 3.95221-8.08764l5.72359 5.02749c.1308.1149.1071.32497-.0461.40776l-2.91098 1.57349c-.05249.0284-.1134.0371-.17172.0244l-1.66027-.3589c-1.55212-.3356-2.71287 1.4032-1.8077 2.708l.84626 1.2198c.06105.088.05926.2051-.00445.2912l-1.09936 1.4856c-.30467.4117-.41368.9363-.29828 1.4353l.31242 1.351c-1.75677-1.8401-2.83562-4.333-2.83562-7.0775z" fill="#000"/></g><path d="m18.1139 19.2066c-.1491-.0603-.3188.0117-.3792.1608-.1553.384-.5925.5693-.9765.4139-.384-.1553-.5693-.5925-.414-.9765.3711-.9171 1.4153-1.3597 2.3323-.9887.384.1554.5693.5926.414.9766-.1554.3839-.5926.5693-.9766.4139z" fill="#000"/><path clip-rule="evenodd" d="m15.2305 11.4291c.9194-.26 1.6659.4937 1.6659 1.299 0 .0186.015.0337.0336.0337s.0337-.0151.0337-.0337c0-.8053.7464-1.559 1.6658-1.299.4936.1395.9622.3382 1.3975.5878.7947.4555.7944 1.4741.2433 2.0252-.0131.0131-.0131.0344 0 .0476.0132.0131.0345.0131.0476 0 .5511-.5511 1.5697-.5514 2.0252.2433.2496.4353.4483.9039.5879 1.3975.2599.9194-.4937 1.6659-1.2991 1.6659-.0186 0-.0336.015-.0336.0336s.015.0337.0336.0337c.8054 0 1.559.7464 1.2991 1.6658-.1396.4936-.3383.9622-.5879 1.3976-.4555.7946-1.4741.7943-2.0252.2433-.0131-.0132-.0344-.0132-.0476 0-.0131.0131-.0131.0344 0 .0476.5511.551.5514 1.5696-.2433 2.0252-.4353.2495-.9039.4482-1.3975.5878-.9194.2599-1.6658-.4937-1.6658-1.2991 0-.0186-.0151-.0336-.0337-.0336s-.0336.015-.0336.0336c0 .8053-.7464 1.559-1.6659 1.2991-.4566-.1291-.8918-.3089-1.2992-.5326-.7621-.4187-.768-1.3973-.2233-1.9098.0282-.0266.0288-.0711.0015-.0985-.0268-.0268-.0703-.0268-.0971 0-.5425.5426-1.5387.5531-2.007-.2135-.2914-.477-.5207-.9965-.6764-1.5471-.2599-.9194.4938-1.6658 1.2991-1.6658.0186 0 .0337-.0151.0337-.0337s-.0151-.0336-.0337-.0336c-.8054 0-1.559-.7465-1.299-1.6659.1395-.4936.3382-.9622.5878-1.3975.4555-.7947 1.4741-.7944 2.0252-.2433.0131.0131.0344.0131.0476 0 .0131-.0132.0131-.0345 0-.0476-.5511-.5511-.5514-1.5697.2433-2.0252.4353-.2496.9039-.4483 1.3975-.5878zm.1808 1.5139c-.2024.0685-.3987.1503-.5879.2445.4189.5982.3612 1.4286-.1731 1.9628-.5342.5343-1.3646.592-1.9628.1731-.0942.1892-.176.3855-.2445.5879.7453.1045 1.3188.7446 1.3188 1.5187s-.5735 1.4142-1.3188 1.5187c.0835.2469.1869.4848.3083.7117.6127-.4371 1.469-.3808 2.0188.169.5241.5241.5984 1.3242.2301 1.9266.1339.0598.271.1136.4111.161.1045-.7453.7446-1.3187 1.5187-1.3187s1.4142.5734 1.5187 1.3187c.2024-.0685.3987-.1503.5879-.2445-.4189-.5982-.3612-1.4285.1731-1.9628.5342-.5342 1.3646-.5919 1.9628-.173.0942-.1892.176-.3856.2445-.588-.7453-.1045-1.3187-.7446-1.3187-1.5187s.5734-1.4142 1.3187-1.5187c-.0685-.2024-.1503-.3987-.2445-.5879-.5982.4189-1.4286.3612-1.9628-.1731-.5343-.5342-.592-1.3646-.1731-1.9628-.1892-.0942-.3855-.176-.5879-.2445-.1045.7453-.7446 1.3188-1.5187 1.3188s-1.4142-.5735-1.5187-1.3188z" fill="#000" fill-rule="evenodd"/></svg>